{
    "accessors" : [
        {
            "bufferView" : 0,
            "componentType" : 5123,
            "count" : 720,
            "max" : [
                255
            ],
            "min" : [
                0
            ],
            "type" : "SCALAR"
        },
        {
            "bufferView" : 1,
            "componentType" : 5126,
            "count" : 256,
            "max" : [
                1.0371737480163574,
                1.0,
                1.0371737480163574
            ],
            "min" : [
                -1.0371737480163574,
                -24.478069305419922,
                -1.0371737480163574
            ],
            "type" : "VEC3"
        },
        {
            "bufferView" : 2,
            "componentType" : 5126,
            "count" : 256,
            "max" : [
                0.9914243221282959,
                1.0,
                0.9914243221282959
            ],
            "min" : [
                -0.9914243221282959,
                -1.0,
                -0.9914243221282959
            ],
            "type" : "VEC3"
        },
        {
            "bufferView" : 3,
            "componentType" : 5123,
            "count" : 132,
            "max" : [
                71
            ],
            "min" : [
                0
            ],
            "type" : "SCALAR"
        },
        {
            "bufferView" : 4,
            "componentType" : 5126,
            "count" : 72,
            "max" : [
                1.0,
                1.0,
                0.9999998211860657
            ],
            "min" : [
                -1.0,
                -0.9999999403953552,
                -1.0
            ],
            "type" : "VEC3"
        },
        {
            "bufferView" : 5,
            "componentType" : 5126,
            "count" : 72,
            "max" : [
                1.0,
                0.965925931930542,
                0.9659258127212524
            ],
            "min" : [
                -1.0,
                -0.9659258723258972,
                -0.9659258127212524
            ],
            "type" : "VEC3"
        },
        {
            "bufferView" : 6,
            "componentType" : 5123,
            "count" : 1338,
            "max" : [
                592
            ],
            "min" : [
                0
            ],
            "type" : "SCALAR"
        },
        {
            "bufferView" : 7,
            "componentType" : 5126,
            "count" : 593,
            "max" : [
                1.0,
                3.771444082260132,
                1.0
            ],
            "min" : [
                -1.0,
                0.0,
                -1.0
            ],
            "type" : "VEC3"
        },
        {
            "bufferView" : 8,
            "componentType" : 5126,
            "count" : 593,
            "max" : [
                1.0,
                1.0,
                1.0
            ],
            "min" : [
                -1.0,
                -1.0,
                -1.0
            ],
            "type" : "VEC3"
        },
        {
            "bufferView" : 9,
            "componentType" : 5123,
            "count" : 1176,
            "max" : [
                741
            ],
            "min" : [
                0
            ],
            "type" : "SCALAR"
        },
        {
            "bufferView" : 10,
            "componentType" : 5126,
            "count" : 742,
            "max" : [
                0.26398786902427673,
                1.0895135402679443,
                0.2009897381067276
            ],
            "min" : [
                -1.3763422966003418,
                0.03682929277420044,
                -1.3755773305892944
            ],
            "type" : "VEC3"
        },
        {
            "bufferView" : 11,
            "componentType" : 5126,
            "count" : 742,
            "max" : [
                1.0,
                0.965925931930542,
                1.0
            ],
            "min" : [
                -1.0,
                -0.9659259915351868,
                -1.0
            ],
            "type" : "VEC3"
        }
    ],
    "asset" : {
        "generator" : "Khronos Blender glTF 2.0 exporter",
        "version" : "2.0"
    },
    "bufferViews" : [
        {
            "buffer" : 0,
            "byteLength" : 1440,
            "byteOffset" : 0,
            "target" : 34963
        },
        {
            "buffer" : 0,
            "byteLength" : 3072,
            "byteOffset" : 1440,
            "target" : 34962
        },
        {
            "buffer" : 0,
            "byteLength" : 3072,
            "byteOffset" : 4512,
            "target" : 34962
        },
        {
            "buffer" : 0,
            "byteLength" : 264,
            "byteOffset" : 7584,
            "target" : 34963
        },
        {
            "buffer" : 0,
            "byteLength" : 864,
            "byteOffset" : 7848,
            "target" : 34962
        },
        {
            "buffer" : 0,
            "byteLength" : 864,
            "byteOffset" : 8712,
            "target" : 34962
        },
        {
            "buffer" : 0,
            "byteLength" : 2676,
            "byteOffset" : 9576,
            "target" : 34963
        },
        {
            "buffer" : 0,
            "byteLength" : 7116,
            "byteOffset" : 12252,
            "target" : 34962
        },
        {
            "buffer" : 0,
            "byteLength" : 7116,
            "byteOffset" : 19368,
            "target" : 34962
        },
        {
            "buffer" : 0,
            "byteLength" : 2352,
            "byteOffset" : 26484,
            "target" : 34963
        },
        {
            "buffer" : 0,
            "byteLength" : 8904,
            "byteOffset" : 28836,
            "target" : 34962
        },
        {
            "buffer" : 0,
            "byteLength" : 8904,
            "byteOffset" : 37740,
            "target" : 34962
        }
    ],
    "buffers" : [
        {
            "byteLength" : 46644,
            "uri" : "FlyingTown.bin"
        }
    ],
    "materials" : [
        {
            "name" : "Material.003",
            "pbrMetallicRoughness" : {
                "baseColorFactor" : [
                    0.6392822360885475,
                    0.5266999800011511,
                    0.17268841523957867,
                    1.0
                ],
                "metallicFactor" : 0.0
            }
        }
    ],
    "meshes" : [
        {
            "name" : "Cube.005",
            "primitives" : [
                {
                    "attributes" : {
                        "NORMAL" : 2,
                        "POSITION" : 1
                    },
                    "indices" : 0
                }
            ]
        },
        {
            "name" : "Cylinder.001",
            "primitives" : [
                {
                    "attributes" : {
                        "NORMAL" : 5,
                        "POSITION" : 4
                    },
                    "indices" : 3
                }
            ]
        },
        {
            "name" : "Plane",
            "primitives" : [
                {
                    "attributes" : {
                        "NORMAL" : 8,
                        "POSITION" : 7
                    },
                    "indices" : 6,
                    "material" : 0
                }
            ]
        },
        {
            "name" : "Torus",
            "primitives" : [
                {
                    "attributes" : {
                        "NORMAL" : 11,
                        "POSITION" : 10
                    },
                    "indices" : 9
                }
            ]
        }
    ],
    "nodes" : [
        {
            "name" : "Camera",
            "rotation" : [
                0.483536034822464,
                0.33687159419059753,
                -0.20870360732078552,
                0.7804827094078064
            ],
            "translation" : [
                7.481131553649902,
                5.34366512298584,
                6.5076398849487305
            ]
        },
        {
            "mesh" : 0,
            "name" : "Cube.003",
            "scale" : [
                1.0200971364974976,
                0.08683055639266968,
                1.0200971364974976
            ],
            "translation" : [
                2.9469799995422363,
                1.9918076992034912,
                -0.10889863967895508
            ]
        },
        {
            "name" : "Cylinder",
            "scale" : [
                1.092747449874878,
                0.3663446009159088,
                0.3797256052494049
            ],
            "translation" : [
                1.0291893482208252,
                0.2510378956794739,
                -0.8780176043510437
            ]
        },
        {
            "mesh" : 1,
            "name" : "Cylinder.001",
            "scale" : [
                1.092747449874878,
                0.3663446009159088,
                0.3797256052494049
            ],
            "translation" : [
                0.5963028073310852,
                0.2510378658771515,
                -0.8780175447463989
            ]
        },
        {
            "mesh" : 2,
            "name" : "Plane",
            "scale" : [
                3.886319875717163,
                3.886319875717163,
                3.886319875717163
            ],
            "translation" : [
                0.22022056579589844,
                -0.01910579390823841,
                0.3631974160671234
            ]
        },
        {
            "name" : "Point",
            "rotation" : [
                0.010749093256890774,
                -0.016917865723371506,
                -0.025494979694485664,
                0.9994739890098572
            ],
            "scale" : [
                1.0,
                1.0,
                0.9999999403953552
            ],
            "translation" : [
                -1.719102144241333,
                4.3732147216796875,
                -0.23748278617858887
            ]
        },
        {
            "name" : "Sun",
            "rotation" : [
                0.02202572114765644,
                -0.45769068598747253,
                -0.41314253211021423,
                0.786986231803894
            ],
            "translation" : [
                6.057464122772217,
                15.152831077575684,
                -5.170408248901367
            ]
        },
        {
            "name" : "Sun.001",
            "rotation" : [
                -0.14443686604499817,
                -0.14972023665905,
                0.3557260036468506,
                0.9111426472663879
            ],
            "translation" : [
                -6.37839937210083,
                15.422347068786621,
                -5.667850017547607
            ]
        },
        {
            "mesh" : 3,
            "name" : "Torus",
            "translation" : [
                -0.20773816108703613,
                -0.2973899841308594,
                -0.01673758029937744
            ]
        }
    ],
    "scene" : 0,
    "scenes" : [
        {
            "name" : "Scene",
            "nodes" : [
                7,
                6,
                4,
                3,
                2,
                5,
                8,
                1,
                0
            ]
        }
    ]
}
